<svg width="876" height="98" viewBox="0 0 876 98" fill="none" xmlns="http://www.w3.org/2000/svg" aria-hidden="true" focusable="false">
<g clip-path="url(#clip0_98_19668)">
<path d="M53.5072 88.2722H47.7437C47.474 88.2722 47.2675 88.107 47.2244 87.8569L45.3032 76.6969L43.7087 67.4267L42.1219 58.2226L47.6839 48.952L49.269 58.1637L50.865 67.4267L54.3034 87.3935C54.3763 87.8172 53.9641 88.2722 53.5072 88.2722Z" fill="#3D5EFC"/>
<path d="M46.0879 39.6893L40.5276 48.952L33.902 10.4595C33.829 10.0358 34.2413 9.58081 34.6981 9.58081H40.4569C40.7266 9.58081 40.9331 9.74594 40.9761 9.99609L46.0879 39.6893Z" fill="#3D5EFC"/>
<path d="M53.208 39.7447L47.6846 48.9488L42.1227 58.2194L24.2527 88.0007C24.1026 88.2509 23.8254 88.416 23.5557 88.416H17.7921C17.3353 88.416 17.1177 87.961 17.372 87.5374L40.5283 48.9488L46.0886 39.6858L51.6144 30.4817L53.208 39.7447Z" fill="#FF3C00"/>
<path d="M70.6999 10.5993L58.7675 30.4852L57.1715 21.2222L63.824 10.136C63.9741 9.88582 64.2512 9.72067 64.521 9.72067H70.2797C70.7366 9.72067 70.9541 10.1756 70.6999 10.5993Z" fill="#FF3C00"/>
<path d="M60.3543 39.6893L54.7924 48.9595L53.2073 39.7479L51.6136 30.4852L48.166 10.4595C48.0931 10.0358 48.5053 9.58081 48.9622 9.58081H54.7208C54.9906 9.58081 55.1971 9.74597 55.2401 9.99614L57.1715 21.2222L58.7676 30.4852L60.3543 39.6893Z" fill="#4399FF"/>
<path d="M67.7713 88.2721H62.0078C61.738 88.2721 61.5316 88.107 61.4885 87.8568L56.3884 58.2226L61.9487 48.9595L68.5674 87.3934C68.6404 87.8171 68.2281 88.2721 67.7713 88.2721Z" fill="#4399FF"/>
<path d="M43.7088 67.4267L45.3032 76.6969L38.5185 88.0039C38.3684 88.2541 38.0912 88.4192 37.8215 88.4192H32.058C31.6011 88.4192 31.3836 87.9642 31.6379 87.5405L43.7088 67.4267Z" fill="#FF8110"/>
<path d="M84.547 9.7175C85.0038 9.7175 85.2213 10.1724 84.9671 10.5961L61.9495 48.9564L56.3892 58.2194L50.8658 67.4235L49.2698 58.1605L54.7932 48.9564L60.3551 39.6858L78.0912 10.1328C78.2413 9.88263 78.5185 9.7175 78.7882 9.7175H84.547Z" fill="#FF8110"/>
<path d="M133.798 29.6328L132.931 36.2079C132.746 36.7609 132.56 36.8839 132.003 36.8839H122.662L117.899 70.4964C117.713 71.1724 117.218 71.4796 116.476 71.4796H109.3C108.619 71.4796 108.187 70.9878 108.31 70.2507L113.012 36.8839H103.98C103.423 36.8839 102.928 36.2079 103.052 35.6546L103.98 29.0796C104.041 28.5266 104.289 28.4651 104.846 28.4651H132.807C133.364 28.4651 133.859 29.0796 133.798 29.6328Z" fill="#0F3DB0"/>
<path d="M157.304 56.4861C156.995 58.7597 156.747 59.7429 154.83 59.7429H136.086C136.333 63.1839 138.746 64.9045 142.766 64.9045C145.179 64.9045 146.912 64.3516 148.891 62.9382C149.51 62.5079 150.005 62.6924 150.438 63.1839L153.284 66.5022C153.654 66.9324 153.902 67.7311 153.284 68.2228C150.005 70.8036 145.86 72.2786 141.715 72.2786C131.941 72.2786 126.249 65.0275 127.487 55.9328C128.724 47.3302 136.024 40.6936 144.623 40.6936C153.654 40.6936 158.541 47.8831 157.304 56.4861ZM136.951 53.9053H149.448C149.51 50.1567 147.282 48.4361 144.251 48.4361C141.22 48.4361 138.312 50.2798 136.951 53.9053Z" fill="#0F3DB0"/>
<path d="M187.306 71.4796H178.892C178.398 71.4796 178.027 71.0494 177.841 70.6194L173.758 62.9382L167.386 71.0494C167.015 71.4796 166.829 71.4796 166.335 71.4796H157.922C157.179 71.4796 156.622 70.7421 157.055 70.1277L169.242 56.0559L161.818 42.2912C161.509 41.6768 161.509 41.3696 162.252 41.3696H170.665C171.16 41.3696 171.531 41.7998 171.716 42.2297L175.428 49.112L181.12 41.7998C181.49 41.3696 181.738 41.3696 182.233 41.3696H190.646C191.388 41.3696 191.884 42.107 191.451 42.7215L179.944 56.0559L187.738 70.5579C188.048 71.1724 188.048 71.4796 187.306 71.4796Z" fill="#0F3DB0"/>
<path d="M225.598 42.537L221.577 70.8036C221.515 71.3566 221.329 71.4796 220.772 71.4796H214.092C213.535 71.4796 213.102 70.8652 213.163 70.3122L213.225 68.53C210.627 70.8036 207.596 72.2786 204.379 72.2786C196.585 72.2786 191.45 66.3795 191.45 58.5752C191.45 49.1735 198.75 40.6936 208.029 40.6936C211.803 40.6936 214.586 42.537 216.504 45.1178L217.061 42.1682C217.185 41.6153 217.555 41.3696 218.112 41.3696H224.608C225.165 41.3696 225.66 41.984 225.598 42.537ZM214.339 55.0112C214.339 51.6929 212.05 49.0505 208.4 49.0505C204.255 49.0505 200.358 52.9221 200.358 57.9607C200.358 61.402 202.647 63.8598 206.235 63.8598C210.565 63.8598 214.339 59.6814 214.339 55.0112Z" fill="#0F3DB0"/>
<path d="M251.64 61.5862C251.64 68.407 245.268 72.2786 238.773 72.2786C233.329 72.2786 229.617 69.5747 227.761 66.8094C227.452 66.3795 227.328 66.0107 227.638 65.642L230.36 62.3852C230.731 61.8935 231.349 62.0165 231.968 62.3852C234.69 63.9829 236.979 64.5973 238.773 64.5973C240.505 64.5973 242.732 63.8598 242.732 62.078C242.732 58.4525 230.36 59.1896 230.36 50.587C230.36 43.9504 236.422 40.6936 242.052 40.6936C246.32 40.6936 250.032 42.537 252.073 45.548C252.382 46.0398 252.63 46.4085 252.259 46.8999L249.289 50.0337C248.98 50.4024 248.609 50.3413 248.052 49.9725C245.763 48.4361 244.341 48.0062 242.608 48.0062C240.876 48.0062 239.267 48.6821 239.267 50.2798C239.267 54.274 251.64 52.4303 251.64 61.5862Z" fill="#0F3DB0"/>
<path d="M304.654 29.6328L303.726 36.2079C303.602 36.7609 303.479 36.8839 302.922 36.8839H288.261L287.085 45.3023H300.386C300.943 45.3023 301.437 45.9783 301.376 46.5312L300.448 53.1063C300.324 53.6592 300.2 53.7207 299.643 53.7207H285.91L284.549 63.0612H298.839C299.396 63.0612 299.891 63.6756 299.829 64.2286L298.901 70.8036C298.778 71.3566 298.591 71.4796 298.035 71.4796H274.899C274.218 71.4796 273.785 70.9878 273.909 70.2507L279.662 29.3868C279.786 28.7112 280.219 28.4651 280.775 28.4651H303.665C304.221 28.4651 304.716 29.0796 304.654 29.6328Z" fill="#0F3DB0"/>
<path d="M342.513 27.8507L336.45 70.8036C336.326 71.3566 336.203 71.4796 335.646 71.4796H328.903C328.346 71.4796 327.975 70.8652 327.975 70.3122L328.161 68.53C325.624 70.8652 322.717 72.2786 319.191 72.2786C310.591 72.2786 305.21 65.0275 306.508 55.9943C307.684 47.4529 314.613 40.6936 322.841 40.6936C326.304 40.6936 328.841 42.2912 330.759 44.4421L333.295 27.4819C333.357 26.929 333.728 26.6218 334.285 26.6218H341.585C342.141 26.6218 342.574 27.2362 342.513 27.8507ZM329.15 55.0111C329.15 51.6929 326.861 49.0505 323.211 49.0505C319.067 49.0505 315.169 52.9221 315.169 57.9607C315.169 61.402 317.458 63.8598 321.046 63.8598C325.376 63.8598 329.15 59.6814 329.15 55.0111Z" fill="#0F3DB0"/>
<path d="M377.401 42.537L373.441 70.8037C373.318 71.3566 373.194 71.4796 372.637 71.4796H365.462C364.905 71.4796 364.471 70.8652 364.471 70.3122L364.719 67.4854C362.306 70.3734 359.028 72.2786 355.564 72.2786C348.573 72.2786 344.305 67.1166 345.418 59.0669L347.831 42.0455C347.893 41.4923 348.078 41.3696 348.635 41.3696H356.058C356.615 41.3696 357.11 41.984 357.048 42.537L354.883 57.715C354.203 62.6309 356.801 63.6756 358.966 63.6756C363.11 63.6756 365.647 60.3573 365.956 58.0837L368.184 42.0455C368.307 41.4923 368.493 41.3696 369.05 41.3696H376.473C377.03 41.3696 377.525 41.984 377.401 42.537Z" fill="#0F3DB0"/>
<path d="M401.711 61.4635C402.206 61.0333 402.763 61.0948 403.134 61.5247L407.093 65.8877C407.526 66.3795 407.65 66.9939 407.093 67.5469C403.876 70.4349 399.485 72.2786 394.845 72.2786C386.803 72.2786 381.112 66.318 381.112 58.391C381.112 48.6206 389.215 40.6936 398.495 40.6936C403.382 40.6936 407.279 42.9672 409.63 46.4697C409.815 46.7769 410.063 47.2687 409.568 47.7601L404.743 51.6929C404.31 52.1231 403.567 52.0616 403.072 51.5087C401.65 49.911 400.165 49.2351 398.185 49.2351C393.608 49.2351 389.958 53.1063 389.958 57.838C389.958 61.402 392.308 63.7371 395.773 63.7371C398.185 63.7371 399.98 63.0612 401.711 61.4635Z" fill="#0F3DB0"/>
<path d="M446.56 42.537L442.539 70.8036C442.477 71.3566 442.291 71.4796 441.734 71.4796H435.054C434.497 71.4796 434.064 70.8652 434.125 70.3122L434.188 68.53C431.589 70.8036 428.558 72.2786 425.341 72.2786C417.547 72.2786 412.412 66.3795 412.412 58.5752C412.412 49.1735 419.712 40.6936 428.991 40.6936C432.765 40.6936 435.549 42.537 437.466 45.1178L438.023 42.1682C438.147 41.6153 438.518 41.3696 439.075 41.3696H445.57C446.127 41.3696 446.622 41.984 446.56 42.537ZM435.301 55.0112C435.301 51.6929 433.012 49.0505 429.362 49.0505C425.218 49.0505 421.32 52.9221 421.32 57.9607C421.32 61.402 423.609 63.8598 427.197 63.8598C431.527 63.8598 435.301 59.6814 435.301 55.0112Z" fill="#0F3DB0"/>
<path d="M472.788 42.537L471.984 48.0062C471.861 48.6821 471.365 48.8048 470.809 48.8048H466.664L463.571 70.6195C463.509 71.1109 463.138 71.4796 462.519 71.4796H455.158C454.601 71.4796 454.23 70.9879 454.291 70.5579L457.385 48.8048H453.178C452.621 48.8048 452.126 48.3134 452.25 47.6374L453.054 42.2297C453.178 41.5538 453.673 41.3696 454.23 41.3696H458.436L459.612 33.0123C459.674 32.4594 460.045 32.1522 460.602 32.1522H467.839C468.396 32.1522 468.891 32.7666 468.829 33.3811L467.715 41.3696H471.861C472.417 41.3696 472.912 41.861 472.788 42.537Z" fill="#0F3DB0"/>
<path d="M480.581 41.3696H487.819C488.376 41.3696 488.871 41.984 488.809 42.5985L484.85 70.6194C484.788 71.1109 484.417 71.4796 483.798 71.4796H476.436C475.942 71.4796 475.509 70.9879 475.571 70.5579L479.592 42.2297C479.653 41.6768 480.025 41.3696 480.581 41.3696ZM480.891 30.616C481.2 28.1579 483.551 26.1915 486.087 26.1915C489.056 26.1915 491.098 28.6497 490.665 31.6604C490.356 34.1185 488.067 36.0849 485.53 36.0849C482.561 36.0849 480.458 33.6268 480.891 30.616Z" fill="#0F3DB0"/>
<path d="M492.52 58.3294C492.52 48.6206 500.872 40.6936 510.151 40.6936C518.379 40.6936 524.255 46.7157 524.255 54.6424C524.255 64.1059 516.027 72.2786 506.563 72.2786C498.397 72.2786 492.52 66.2565 492.52 58.3294ZM515.409 55.0727C515.409 51.5702 513.058 49.2351 509.47 49.2351C505.14 49.2351 501.366 53.2293 501.366 57.838C501.366 61.402 503.779 63.7371 507.305 63.7371C511.635 63.7371 515.409 59.7429 515.409 55.0727Z" fill="#0F3DB0"/>
<path d="M559.886 53.9053L557.535 70.6194C557.474 71.1109 557.103 71.4796 556.483 71.4796H549.122C548.565 71.4796 548.194 70.9879 548.256 70.5579L550.421 55.2569C551.164 50.3413 548.751 49.2351 546.462 49.2351C542.132 49.2351 539.596 53.598 539.348 55.0112L537.183 70.6194C537.121 71.1109 536.75 71.4796 536.131 71.4796H528.769C528.213 71.4796 527.78 70.9879 527.841 70.5579L531.924 42.2297C531.987 41.6768 532.357 41.3696 532.914 41.3696H539.905C540.461 41.3696 540.894 41.984 540.894 42.537L540.585 45.9168C542.936 42.7215 546.215 40.6936 550.359 40.6936C556.669 40.6936 561.062 45.9168 559.886 53.9053Z" fill="#0F3DB0"/>
<path d="M613.024 29.6328L612.096 36.2079C611.972 36.7609 611.848 36.8839 611.292 36.8839H596.63L595.455 45.3023H608.755C609.312 45.3023 609.807 45.9783 609.746 46.5312L608.818 53.1063C608.694 53.6592 608.57 53.7207 608.013 53.7207H594.28L592.919 63.0612H607.209C607.766 63.0612 608.261 63.6756 608.199 64.2286L607.271 70.8036C607.147 71.3566 606.961 71.4796 606.405 71.4796H583.269C582.588 71.4796 582.155 70.9878 582.278 70.2507L588.032 29.3868C588.156 28.7112 588.589 28.4651 589.145 28.4651H612.034C612.591 28.4651 613.086 29.0796 613.024 29.6328Z" fill="#0F3DB0"/>
<path d="M643.212 71.4796H634.798C634.303 71.4796 633.932 71.0494 633.746 70.6194L629.664 62.9382L623.292 71.0494C622.921 71.4796 622.735 71.4796 622.24 71.4796H613.827C613.085 71.4796 612.528 70.7421 612.961 70.1277L625.148 56.0559L617.724 42.2912C617.415 41.6768 617.415 41.3696 618.157 41.3696H626.57C627.066 41.3696 627.437 41.7998 627.622 42.2297L631.334 49.112L637.025 41.7998C637.396 41.3696 637.644 41.3696 638.139 41.3696H646.552C647.294 41.3696 647.79 42.107 647.356 42.7215L635.85 56.0559L643.644 70.5579C643.954 71.1724 643.954 71.4796 643.212 71.4796Z" fill="#0F3DB0"/>
<path d="M667.956 61.4635C668.45 61.0333 669.007 61.0948 669.379 61.5247L673.338 65.8877C673.771 66.3795 673.894 66.9939 673.338 67.5469C670.121 70.4349 665.729 72.2786 661.089 72.2786C653.047 72.2786 647.356 66.318 647.356 58.391C647.356 48.6206 655.46 40.6936 664.739 40.6936C669.626 40.6936 673.523 42.9672 675.874 46.4697C676.059 46.7769 676.307 47.2687 675.812 47.7601L670.987 51.6929C670.554 52.1231 669.811 52.0616 669.317 51.5087C667.894 49.911 666.409 49.2351 664.43 49.2351C659.852 49.2351 656.202 53.1063 656.202 57.838C656.202 61.402 658.552 63.7371 662.017 63.7371C664.43 63.7371 666.224 63.0612 667.956 61.4635Z" fill="#0F3DB0"/>
<path d="M710.64 53.9053L708.289 70.6194C708.227 71.1109 707.856 71.4796 707.237 71.4796H699.875C699.381 71.4796 698.948 70.9878 699.009 70.5579L701.175 55.2569C701.917 50.3413 699.505 49.2351 697.277 49.2351C692.885 49.2351 690.349 53.598 690.163 55.0111L687.936 70.6194C687.874 71.1109 687.503 71.4796 686.885 71.4796H679.523C678.966 71.4796 678.595 70.9878 678.657 70.5579L684.781 27.4819C684.843 26.929 685.214 26.6218 685.771 26.6218H693.07C693.627 26.6218 694.061 27.2362 693.999 27.8507L691.338 45.9168C693.689 42.7215 696.968 40.6936 701.113 40.6936C707.423 40.6936 711.815 45.9168 710.64 53.9053Z" fill="#0F3DB0"/>
<path d="M750.106 42.537L746.085 70.8036C746.023 71.3566 745.838 71.4796 745.281 71.4796H738.6C738.043 71.4796 737.61 70.8652 737.672 70.3122L737.734 68.53C735.136 70.8036 732.104 72.2786 728.888 72.2786C721.093 72.2786 715.958 66.3795 715.958 58.5752C715.958 49.1735 723.258 40.6936 732.538 40.6936C736.311 40.6936 739.095 42.537 741.012 45.1178L741.569 42.1682C741.693 41.6153 742.064 41.3696 742.621 41.3696H749.117C749.673 41.3696 750.168 41.984 750.106 42.537ZM738.847 55.0112C738.847 51.6929 736.558 49.0505 732.909 49.0505C728.764 49.0505 724.866 52.9221 724.866 57.9607C724.866 61.402 727.155 63.8598 730.743 63.8598C735.074 63.8598 738.847 59.6814 738.847 55.0112Z" fill="#0F3DB0"/>
<path d="M785.799 53.9053L783.448 70.6194C783.386 71.1109 783.015 71.4796 782.396 71.4796H775.035C774.478 71.4796 774.107 70.9879 774.169 70.5579L776.334 55.2569C777.077 50.3413 774.664 49.2351 772.375 49.2351C768.044 49.2351 765.508 53.598 765.261 55.0112L763.096 70.6194C763.033 71.1109 762.663 71.4796 762.044 71.4796H754.682C754.126 71.4796 753.693 70.9879 753.754 70.5579L757.837 42.2297C757.899 41.6768 758.27 41.3696 758.827 41.3696H765.818C766.374 41.3696 766.807 41.984 766.807 42.537L766.498 45.9168C768.848 42.7215 772.127 40.6936 776.272 40.6936C782.582 40.6936 786.975 45.9168 785.799 53.9053Z" fill="#0F3DB0"/>
<path d="M825.204 42.537L821.121 71.5411C819.76 81.1885 810.419 83.6466 803.676 83.6466C798.171 83.6466 793.469 81.7417 790.685 79.4066C790.314 79.0994 790.005 78.4849 790.314 78.0547L792.974 74.3677C793.345 73.8762 793.469 73.7532 794.273 74.1835C797.057 75.5966 799.841 76.1498 803.243 76.1498C806.645 76.1498 812.151 74.7364 812.77 70.1892L813.079 67.9156C810.543 70.1892 807.388 71.6638 804.109 71.6638C796.253 71.6638 791.118 65.7647 791.118 58.0837C791.118 48.9278 798.603 40.6936 807.635 40.6936C811.409 40.6936 814.254 42.4758 816.172 45.0566L816.729 41.984C816.853 41.4311 816.976 41.3696 817.533 41.3696H824.276C824.833 41.3696 825.328 41.984 825.204 42.537ZM813.821 55.1957C813.821 51.6317 811.038 49.0505 807.635 49.0505C803.182 49.0505 800.088 53.1063 800.088 57.1005C800.088 60.7876 802.81 63.2454 806.212 63.2454C810.667 63.2454 813.821 59.0669 813.821 55.1957Z" fill="#0F3DB0"/>
<path d="M858.546 56.4861C858.237 58.7597 857.989 59.7429 856.072 59.7429H837.328C837.575 63.1839 839.988 64.9045 844.008 64.9045C846.421 64.9045 848.154 64.3516 850.133 62.9382C850.752 62.5079 851.247 62.6924 851.68 63.1839L854.525 66.5022C854.896 66.9324 855.144 67.7311 854.525 68.2228C851.247 70.8036 847.102 72.2786 842.957 72.2786C833.183 72.2786 827.492 65.0275 828.729 55.9328C829.966 47.3302 837.266 40.6936 845.865 40.6936C854.896 40.6936 859.784 47.8831 858.546 56.4861ZM838.193 53.9053H850.69C850.752 50.1567 848.525 48.4361 845.493 48.4361C842.462 48.4361 839.554 50.2798 838.193 53.9053Z" fill="#0F3DB0"/>
</g>
<defs>
<clipPath id="clip0_98_19668">
<rect width="876" height="98" fill="white"/>
</clipPath>
</defs>
</svg>
