<svg width="25" height="24" viewBox="0 0 25 24" fill="none" xmlns="http://www.w3.org/2000/svg" aria-hidden="true" focusable="false">
<rect x="0.90332" width="24" height="24" rx="12" fill="#001C66"/>
<path fill-rule="evenodd" clip-rule="evenodd" d="M8.18535 7.64816C8.18535 5.08067 10.2969 3 12.9025 3C15.5081 3 17.6212 5.08067 17.6212 7.64816C17.6212 10.2172 15.5081 12.2979 12.9025 12.2979C10.2969 12.2979 8.18535 10.2172 8.18535 7.64816ZM12.9369 22C16.0521 22 18.8713 20.7711 20.9033 18.794V17.3915C20.9033 15.6956 19.4713 14.3191 17.7033 14.3191H8.10332C6.33532 14.3191 4.90332 15.6956 4.90332 17.3915V18.7233C6.94012 20.7403 9.78652 22 12.9369 22Z" fill="white"/>
</svg>
