<svg width="333" height="474" viewBox="0 0 333 474" fill="none" xmlns="http://www.w3.org/2000/svg" aria-hidden="true" focusable="false">
<path fill-rule="evenodd" clip-rule="evenodd" d="M143.192 166.698L135.5 122.984L135.579 122.826L114.198 0.985447C114.119 0.394179 113.606 0 112.975 0H99.2869C98.2219 0 97.2357 1.1037 97.3935 2.08915L121.89 141.707L121.811 141.865L130.056 188.654L133.882 210.649L138.498 237.887C138.564 238.219 138.742 238.489 138.998 238.661C138.969 238.781 138.954 238.902 138.954 239.022L96.4073 307.893L82.9163 329.731L55.1848 374.509C55.1848 374.549 0.274104 462.648 0.274104 462.648C-0.357054 463.633 0.155762 464.737 1.26029 464.737L14.9485 464.934C15.5797 464.934 16.2503 464.54 16.6053 463.988L59.524 395.322C59.524 395.283 86.4271 351.805 86.4271 351.805L99.9181 329.967L142.658 260.75L147.216 287.356L147.36 288.187L131.239 314.555L117.827 336.471L90.2929 381.368C90.2929 381.407 35.5795 469.664 35.5795 469.664C34.9483 470.65 35.4611 471.753 36.5657 471.753L50.2539 471.871C50.885 471.871 51.5556 471.477 51.9107 470.886L94.711 402.141C94.711 402.102 121.417 358.506 121.417 358.506L134.829 336.629L151.144 309.932L158.734 353.066L158.655 353.224L177.708 466.511C177.827 467.102 178.3 467.496 178.931 467.496H192.619C193.684 467.496 194.671 466.392 194.513 465.407H194.473L172.343 334.303L172.422 334.145L164.349 288.326L179.401 263.696L184.533 293.821L188.32 315.816L195.972 359.53L195.894 359.688L214.828 473.015C214.947 473.606 215.42 474 216.051 474H229.739C230.804 474 231.791 472.936 231.633 471.911H231.554L209.542 340.768L209.621 340.61L201.456 293.821L197.669 271.826L193.093 244.549C193.024 244.206 192.837 243.93 192.569 243.758C192.601 243.59 192.606 243.418 192.58 243.248L192.366 241.991L233.724 174.345L247.136 152.429L274.67 107.532C274.67 107.493 331.829 12.3772 331.829 12.3772C332.46 11.3918 331.947 10.2881 330.843 10.2881L317.155 10.1698C316.524 10.1698 315.853 10.564 315.498 11.1553L270.252 86.7588C270.252 86.7982 243.546 130.394 243.546 130.394L230.134 152.271L188.647 220.157L184.375 195.079L184.058 193.238L199.523 168.196L213.014 146.359L240.745 101.58C240.745 101.54 298.141 6.54338 298.141 6.54338C298.772 5.55793 298.259 4.45423 297.155 4.45423L283.467 4.25714C282.835 4.25714 282.165 4.65132 281.81 5.20317L236.445 80.7278C236.445 80.7672 209.542 124.245 209.542 124.245L196.051 146.083L180.321 171.558L172.935 129.369L173.014 129.212L151.831 7.37116C151.712 6.77989 151.239 6.38571 150.608 6.38571H136.92C135.855 6.38571 134.868 7.44999 135.026 8.47486L159.365 148.132L159.286 148.29L167.087 192.99L151.958 217.492L147.018 188.654L143.192 166.698ZM175.394 241.842L171.239 217.074L170.824 214.666L156.562 237.761C156.57 238.053 156.484 238.37 156.288 238.675L155.928 239.258L160.351 265.361L160.565 266.588L173.925 244.737C173.912 244.439 173.997 244.113 174.197 243.8L175.394 241.842Z" fill="#EDFBFF" fill-opacity="0.1"/>
</svg>
