<svg width="15" height="16" viewBox="0 0 15 16" fill="none" xmlns="http://www.w3.org/2000/svg" aria-hidden="true" focusable="false">
<path d="M6.25 8C7.63071 8 8.75 6.88071 8.75 5.5C8.75 4.11929 7.63071 3 6.25 3C4.86929 3 3.75 4.11929 3.75 5.5C3.75 6.88071 4.86929 8 6.25 8Z" fill="#001C66"/>
<path d="M6.66875 8.6375C6.53125 8.63125 6.39375 8.625 6.25 8.625C4.7375 8.625 3.325 9.04375 2.11875 9.7625C1.56875 10.0875 1.25 10.7 1.25 11.3438V13H7.0375C6.59606 12.3703 6.32937 11.6348 6.26459 10.8685C6.19982 10.1022 6.33927 9.33239 6.66875 8.6375V8.6375ZM12.9688 10.5C12.9688 10.3625 12.95 10.2375 12.9313 10.1062L13.6437 9.475L13.0187 8.39375L12.1125 8.7C11.9125 8.53125 11.6875 8.4 11.4375 8.30625L11.25 7.375H10L9.8125 8.30625C9.5625 8.4 9.3375 8.53125 9.1375 8.7L8.23125 8.39375L7.60625 9.475L8.31875 10.1062C8.3 10.2375 8.28125 10.3625 8.28125 10.5C8.28125 10.6375 8.3 10.7625 8.31875 10.8937L7.60625 11.525L8.23125 12.6063L9.1375 12.3C9.3375 12.4687 9.5625 12.6 9.8125 12.6938L10 13.625H11.25L11.4375 12.6938C11.6875 12.6 11.9125 12.4687 12.1125 12.3L13.0187 12.6063L13.6437 11.525L12.9313 10.8937C12.95 10.7625 12.9688 10.6375 12.9688 10.5V10.5ZM10.625 11.75C9.9375 11.75 9.375 11.1875 9.375 10.5C9.375 9.8125 9.9375 9.25 10.625 9.25C11.3125 9.25 11.875 9.8125 11.875 10.5C11.875 11.1875 11.3125 11.75 10.625 11.75Z" fill="#001C66"/>
</svg>
