<svg width="15" height="10" viewBox="0 0 15 10" fill="none" xmlns="http://www.w3.org/2000/svg" aria-hidden="true" focusable="false">
<path d="M10.4187 5.70625C11.275 6.2875 11.875 7.075 11.875 8.125V10H14.375V8.125C14.375 6.7625 12.1438 5.95625 10.4187 5.70625ZM9.375 5C10.7563 5 11.875 3.88125 11.875 2.5C11.875 1.11875 10.7563 0 9.375 0C9.08125 0 8.80625 0.0624999 8.54375 0.15C9.08158 0.815136 9.37498 1.64463 9.37498 2.5C9.37498 3.35537 9.08158 4.18486 8.54375 4.85C8.80625 4.9375 9.08125 5 9.375 5ZM5.625 5C7.00625 5 8.125 3.88125 8.125 2.5C8.125 1.11875 7.00625 0 5.625 0C4.24375 0 3.125 1.11875 3.125 2.5C3.125 3.88125 4.24375 5 5.625 5ZM5.625 1.25C6.3125 1.25 6.875 1.8125 6.875 2.5C6.875 3.1875 6.3125 3.75 5.625 3.75C4.9375 3.75 4.375 3.1875 4.375 2.5C4.375 1.8125 4.9375 1.25 5.625 1.25ZM5.625 5.625C3.95625 5.625 0.625 6.4625 0.625 8.125V10H10.625V8.125C10.625 6.4625 7.29375 5.625 5.625 5.625ZM9.375 8.75H1.875V8.13125C2 7.68125 3.9375 6.875 5.625 6.875C7.3125 6.875 9.25 7.68125 9.375 8.125V8.75Z" fill="#001C66"/>
</svg>
