<svg width="33" height="32" viewBox="0 0 33 32" fill="none" xmlns="http://www.w3.org/2000/svg" aria-hidden="true" focusable="false">
<path fill-rule="evenodd" clip-rule="evenodd" d="M23.0863 17.5066C24.913 18.7466 26.193 20.4266 26.193 22.6666V26.6666H31.5263V22.6666C31.5263 19.7599 26.7663 18.0399 23.0863 17.5066Z" fill="#1C3DAA"/>
<path d="M12.8596 15.9999C15.8051 15.9999 18.1929 13.6121 18.1929 10.6666C18.1929 7.72107 15.8051 5.33325 12.8596 5.33325C9.91406 5.33325 7.52625 7.72107 7.52625 10.6666C7.52625 13.6121 9.91406 15.9999 12.8596 15.9999Z" fill="#1C3DAA"/>
<path fill-rule="evenodd" clip-rule="evenodd" d="M20.8597 15.9999C23.8063 15.9999 26.193 13.6133 26.193 10.6666C26.193 7.71992 23.8063 5.33325 20.8597 5.33325C20.233 5.33325 19.6463 5.46658 19.0863 5.65325C20.2337 7.07221 20.8596 8.84179 20.8596 10.6666C20.8596 12.4914 20.2337 14.261 19.0863 15.6799C19.6463 15.8666 20.233 15.9999 20.8597 15.9999ZM12.8597 17.3333C9.29966 17.3333 2.19299 19.1199 2.19299 22.6666V26.6666H23.5263V22.6666C23.5263 19.1199 16.4197 17.3333 12.8597 17.3333Z" fill="#1C3DAA"/>
</svg>