<svg width="16" height="16" viewBox="0 0 16 16" fill="none" xmlns="http://www.w3.org/2000/svg" aria-hidden="true" focusable="false">
<path d="M15.9032 8.83034V7.11605L13.8246 6.43034L13.3425 5.26248L14.2853 3.29105L13.0746 2.08034L11.1353 3.05534L9.96748 2.57319L9.2282 0.516052H7.51391L6.83891 2.59462L5.64963 3.07677L3.6782 2.13391L2.46748 3.34462L3.44248 5.28391L2.96034 6.45177L0.903198 7.18034V8.88391L2.98177 9.56962L3.46391 10.7375L2.52106 12.7089L3.73177 13.9196L5.67105 12.9446L6.83891 13.4268L7.5782 15.4839H9.28177L9.95677 13.4053L11.1461 12.9232L13.1175 13.8661L14.3282 12.6553L13.3425 10.7161L13.8461 9.54819L15.9032 8.80891V8.83034ZM8.4032 11.2196C6.62463 11.2196 5.18891 9.78391 5.18891 8.00534C5.18891 6.22677 6.62463 4.79105 8.4032 4.79105C10.1818 4.79105 11.6175 6.22677 11.6175 8.00534C11.6175 9.78391 10.1818 11.2196 8.4032 11.2196Z" fill="#001C66"/>
</svg>
