<svg width="26" height="27" viewBox="0 0 26 27" fill="none" xmlns="http://www.w3.org/2000/svg" aria-hidden="true" focusable="false">
<path d="M26 15.4051V12.4336L22.3971 11.2451L21.5614 9.22079L23.1957 5.80365L21.0971 3.70508L17.7357 5.39508L15.7114 4.55936L14.43 0.993652H11.4586L10.2886 4.59651L8.22714 5.43222L4.81 3.79794L2.71143 5.89651L4.40143 9.25793L3.56571 11.2822L0 12.5451V15.4979L3.60286 16.6865L4.43857 18.7108L2.80429 22.1279L4.90286 24.2265L8.26429 22.5365L10.2886 23.3722L11.57 26.9379H14.5229L15.6929 23.3351L17.7543 22.4993L21.1714 24.1336L23.27 22.0351L21.5614 18.6736L22.4343 16.6494L26 15.3679V15.4051ZM13 19.5465C9.91714 19.5465 7.42857 17.0579 7.42857 13.9751C7.42857 10.8922 9.91714 8.40365 13 8.40365C16.0829 8.40365 18.5714 10.8922 18.5714 13.9751C18.5714 17.0579 16.0829 19.5465 13 19.5465Z" fill="#1C3DAA"/>
</svg>
