<svg width="32" height="32" viewBox="0 0 32 32" fill="none" xmlns="http://www.w3.org/2000/svg" aria-hidden="true" focusable="false">
<path d="M23.2784 14.0273H22.4867V11.1244C22.4862 9.41393 21.8706 7.7607 20.7521 6.46657C19.6337 5.17245 18.0871 4.32376 16.3948 4.07549C14.7024 3.82721 12.9772 4.19591 11.5342 5.11426C10.0912 6.03261 9.02666 7.43934 8.53492 9.07759C8.48523 9.24359 8.46871 9.41775 8.48633 9.59013C8.50394 9.76251 8.55533 9.92974 8.63757 10.0823C8.71981 10.2348 8.83128 10.3696 8.96563 10.479C9.09998 10.5885 9.25456 10.6704 9.42056 10.7201C9.58656 10.7698 9.76073 10.7863 9.93311 10.7687C10.1055 10.7511 10.2727 10.6997 10.4252 10.6174C10.5778 10.5352 10.7126 10.4237 10.822 10.2894C10.9315 10.155 11.0134 10.0004 11.0631 9.83445C11.3731 8.80323 12.0436 7.91789 12.9522 7.34001C13.8608 6.76213 14.9469 6.53024 16.0123 6.68668C17.0777 6.84312 18.0513 7.37746 18.7554 8.19215C19.4595 9.00684 19.8472 10.0476 19.8477 11.1244V13.4995C19.8477 13.6394 19.7921 13.7737 19.6931 13.8727C19.5941 13.9717 19.4599 14.0273 19.3199 14.0273H7.4445C6.88458 14.0273 6.34759 14.2497 5.95166 14.6456C5.55574 15.0415 5.33331 15.5785 5.33331 16.1384V27.2222C5.33331 27.7821 5.55574 28.3191 5.95166 28.715C6.34759 29.1109 6.88458 29.3333 7.4445 29.3333H23.2784C23.8383 29.3333 24.3753 29.1109 24.7712 28.715C25.1671 28.3191 25.3896 27.7821 25.3896 27.2222V16.1384C25.3896 15.5785 25.1671 15.0415 24.7712 14.6456C24.3753 14.2497 23.8383 14.0273 23.2784 14.0273ZM13.2503 20.3608C13.2486 19.9898 13.3447 19.6249 13.5289 19.3029C13.7131 18.9809 13.979 18.7131 14.2996 18.5265C14.6203 18.3399 14.9844 18.2411 15.3554 18.2401C15.7264 18.239 16.0912 18.3358 16.4129 18.5205C16.7346 18.7053 17.0019 18.9716 17.188 19.2926C17.374 19.6135 17.4722 19.9779 17.4726 20.3489C17.473 20.7199 17.3757 21.0844 17.1904 21.4058C17.005 21.7272 16.7383 21.9941 16.417 22.1796V24.5832C16.417 24.8631 16.3058 25.1316 16.1079 25.3296C15.9099 25.5276 15.6414 25.6388 15.3614 25.6388C15.0815 25.6388 14.813 25.5276 14.615 25.3296C14.4171 25.1316 14.3058 24.8631 14.3058 24.5832V22.1796C13.9859 21.9956 13.7199 21.7307 13.5346 21.4115C13.3494 21.0922 13.2513 20.7299 13.2503 20.3608Z" fill="#1C3DAA"/>
</svg>
